ISO-10303-21;
HEADER;
/* Generated by software containing ST-Developer
 * from STEP Tools, Inc. (www.steptools.com) 
 */

FILE_DESCRIPTION(
/* description */ (''),
/* implementation_level */ '2;1');

FILE_NAME(
/* name */ '3.5inch waveshare display v4.step',
/* time_stamp */ '2026-04-16T17:04:45+02:00',
/* author */ (''),
/* organization */ (''),
/* preprocessor_version */ 'ST-DEVELOPER v20.1',
/* originating_system */ 'Autodesk Translation Framework v15.8.0.0',
/* authorisation */ '');

FILE_SCHEMA (('AUTOMOTIVE_DESIGN { 1 0 10303 214 3 1 1 }'));
ENDSEC;

DATA;
#10=MECHANICAL_DESIGN_GEOMETRIC_PRESENTATION_REPRESENTATION('',(#13),#1099);
#11=SHAPE_REPRESENTATION_RELATIONSHIP('SRR','None',#1106,#12);
#12=ADVANCED_BREP_SHAPE_REPRESENTATION('',(#14),#1098);
#13=STYLED_ITEM('',(#1115),#14);
#14=MANIFOLD_SOLID_BREP('Body1',#647);
#15=FACE_BOUND('',#113,.T.);
#16=FACE_BOUND('',#115,.T.);
#17=FACE_BOUND('',#116,.T.);
#18=FACE_BOUND('',#117,.T.);
#19=FACE_BOUND('',#118,.T.);
#20=FACE_BOUND('',#119,.T.);
#21=FACE_BOUND('',#123,.T.);
#22=FACE_BOUND('',#128,.T.);
#23=FACE_BOUND('',#133,.T.);
#24=FACE_BOUND('',#150,.T.);
#25=CIRCLE('',#671,1.5);
#26=CIRCLE('',#672,1.5);
#27=CIRCLE('',#674,3.5);
#28=CIRCLE('',#675,3.5);
#29=CIRCLE('',#678,3.5);
#30=CIRCLE('',#679,3.5);
#31=CIRCLE('',#680,3.5);
#32=CIRCLE('',#682,1.5);
#33=CIRCLE('',#683,1.5);
#34=CIRCLE('',#685,3.5);
#35=CIRCLE('',#689,1.5);
#36=CIRCLE('',#690,1.5);
#37=CIRCLE('',#692,3.5);
#38=CIRCLE('',#696,1.5);
#39=CIRCLE('',#697,1.5);
#40=CIRCLE('',#699,3.5);
#41=CIRCLE('',#708,5.);
#42=CIRCLE('',#709,5.);
#43=CIRCLE('',#712,5.);
#44=CIRCLE('',#713,5.);
#45=CIRCLE('',#714,5.);
#46=CIRCLE('',#716,5.);
#47=CIRCLE('',#719,5.);
#48=CIRCLE('',#722,5.);
#49=CYLINDRICAL_SURFACE('',#670,1.5);
#50=CYLINDRICAL_SURFACE('',#673,3.5);
#51=CYLINDRICAL_SURFACE('',#681,1.5);
#52=CYLINDRICAL_SURFACE('',#684,3.5);
#53=CYLINDRICAL_SURFACE('',#688,1.5);
#54=CYLINDRICAL_SURFACE('',#691,3.5);
#55=CYLINDRICAL_SURFACE('',#695,1.5);
#56=CYLINDRICAL_SURFACE('',#698,3.5);
#57=CYLINDRICAL_SURFACE('',#707,5.);
#58=CYLINDRICAL_SURFACE('',#715,5.);
#59=CYLINDRICAL_SURFACE('',#718,5.);
#60=CYLINDRICAL_SURFACE('',#721,5.);
#61=FACE_OUTER_BOUND('',#101,.T.);
#62=FACE_OUTER_BOUND('',#102,.T.);
#63=FACE_OUTER_BOUND('',#103,.T.);
#64=FACE_OUTER_BOUND('',#104,.T.);
#65=FACE_OUTER_BOUND('',#105,.T.);
#66=FACE_OUTER_BOUND('',#106,.T.);
#67=FACE_OUTER_BOUND('',#107,.T.);
#68=FACE_OUTER_BOUND('',#108,.T.);
#69=FACE_OUTER_BOUND('',#109,.T.);
#70=FACE_OUTER_BOUND('',#110,.T.);
#71=FACE_OUTER_BOUND('',#111,.T.);
#72=FACE_OUTER_BOUND('',#112,.T.);
#73=FACE_OUTER_BOUND('',#114,.T.);
#74=FACE_OUTER_BOUND('',#120,.T.);
#75=FACE_OUTER_BOUND('',#121,.T.);
#76=FACE_OUTER_BOUND('',#122,.T.);
#77=FACE_OUTER_BOUND('',#124,.T.);
#78=FACE_OUTER_BOUND('',#125,.T.);
#79=FACE_OUTER_BOUND('',#126,.T.);
#80=FACE_OUTER_BOUND('',#127,.T.);
#81=FACE_OUTER_BOUND('',#129,.T.);
#82=FACE_OUTER_BOUND('',#130,.T.);
#83=FACE_OUTER_BOUND('',#131,.T.);
#84=FACE_OUTER_BOUND('',#132,.T.);
#85=FACE_OUTER_BOUND('',#134,.T.);
#86=FACE_OUTER_BOUND('',#135,.T.);
#87=FACE_OUTER_BOUND('',#136,.T.);
#88=FACE_OUTER_BOUND('',#137,.T.);
#89=FACE_OUTER_BOUND('',#138,.T.);
#90=FACE_OUTER_BOUND('',#139,.T.);
#91=FACE_OUTER_BOUND('',#140,.T.);
#92=FACE_OUTER_BOUND('',#141,.T.);
#93=FACE_OUTER_BOUND('',#142,.T.);
#94=FACE_OUTER_BOUND('',#143,.T.);
#95=FACE_OUTER_BOUND('',#144,.T.);
#96=FACE_OUTER_BOUND('',#145,.T.);
#97=FACE_OUTER_BOUND('',#146,.T.);
#98=FACE_OUTER_BOUND('',#147,.T.);
#99=FACE_OUTER_BOUND('',#148,.T.);
#100=FACE_OUTER_BOUND('',#149,.T.);
#101=EDGE_LOOP('',(#411,#412,#413,#414));
#102=EDGE_LOOP('',(#415,#416,#417,#418));
#103=EDGE_LOOP('',(#419,#420,#421,#422));
#104=EDGE_LOOP('',(#423,#424,#425,#426));
#105=EDGE_LOOP('',(#427,#428,#429,#430));
#106=EDGE_LOOP('',(#431,#432,#433,#434));
#107=EDGE_LOOP('',(#435,#436,#437,#438));
#108=EDGE_LOOP('',(#439,#440,#441,#442));
#109=EDGE_LOOP('',(#443,#444,#445,#446));
#110=EDGE_LOOP('',(#447,#448,#449,#450));
#111=EDGE_LOOP('',(#451,#452,#453,#454));
#112=EDGE_LOOP('',(#455));
#113=EDGE_LOOP('',(#456));
#114=EDGE_LOOP('',(#457,#458,#459,#460,#461,#462,#463,#464));
#115=EDGE_LOOP('',(#465,#466,#467,#468));
#116=EDGE_LOOP('',(#469));
#117=EDGE_LOOP('',(#470));
#118=EDGE_LOOP('',(#471));
#119=EDGE_LOOP('',(#472));
#120=EDGE_LOOP('',(#473,#474,#475,#476));
#121=EDGE_LOOP('',(#477,#478,#479,#480));
#122=EDGE_LOOP('',(#481));
#123=EDGE_LOOP('',(#482));
#124=EDGE_LOOP('',(#483));
#125=EDGE_LOOP('',(#484,#485,#486,#487));
#126=EDGE_LOOP('',(#488,#489,#490,#491));
#127=EDGE_LOOP('',(#492));
#128=EDGE_LOOP('',(#493));
#129=EDGE_LOOP('',(#494));
#130=EDGE_LOOP('',(#495,#496,#497,#498));
#131=EDGE_LOOP('',(#499,#500,#501,#502));
#132=EDGE_LOOP('',(#503));
#133=EDGE_LOOP('',(#504));
#134=EDGE_LOOP('',(#505));
#135=EDGE_LOOP('',(#506,#507,#508,#509));
#136=EDGE_LOOP('',(#510,#511,#512,#513));
#137=EDGE_LOOP('',(#514,#515,#516,#517));
#138=EDGE_LOOP('',(#518,#519,#520,#521,#522,#523,#524,#525));
#139=EDGE_LOOP('',(#526));
#140=EDGE_LOOP('',(#527,#528,#529,#530));
#141=EDGE_LOOP('',(#531,#532,#533,#534));
#142=EDGE_LOOP('',(#535,#536,#537,#538,#539,#540,#541,#542));
#143=EDGE_LOOP('',(#543,#544,#545,#546));
#144=EDGE_LOOP('',(#547,#548,#549,#550));
#145=EDGE_LOOP('',(#551,#552,#553,#554));
#146=EDGE_LOOP('',(#555,#556,#557,#558));
#147=EDGE_LOOP('',(#559,#560,#561,#562));
#148=EDGE_LOOP('',(#563,#564,#565,#566));
#149=EDGE_LOOP('',(#567,#568,#569,#570,#571,#572,#573,#574));
#150=EDGE_LOOP('',(#575,#576,#577,#578));
#151=LINE('',#919,#211);
#152=LINE('',#921,#212);
#153=LINE('',#923,#213);
#154=LINE('',#924,#214);
#155=LINE('',#927,#215);
#156=LINE('',#929,#216);
#157=LINE('',#930,#217);
#158=LINE('',#933,#218);
#159=LINE('',#935,#219);
#160=LINE('',#936,#220);
#161=LINE('',#938,#221);
#162=LINE('',#942,#222);
#163=LINE('',#944,#223);
#164=LINE('',#946,#224);
#165=LINE('',#947,#225);
#166=LINE('',#950,#226);
#167=LINE('',#952,#227);
#168=LINE('',#953,#228);
#169=LINE('',#956,#229);
#170=LINE('',#958,#230);
#171=LINE('',#959,#231);
#172=LINE('',#961,#232);
#173=LINE('',#962,#233);
#174=LINE('',#968,#234);
#175=LINE('',#974,#235);
#176=LINE('',#979,#236);
#177=LINE('',#981,#237);
#178=LINE('',#983,#238);
#179=LINE('',#985,#239);
#180=LINE('',#986,#240);
#181=LINE('',#997,#241);
#182=LINE('',#1002,#242);
#183=LINE('',#1009,#243);
#184=LINE('',#1014,#244);
#185=LINE('',#1021,#245);
#186=LINE('',#1026,#246);
#187=LINE('',#1032,#247);
#188=LINE('',#1033,#248);
#189=LINE('',#1034,#249);
#190=LINE('',#1037,#250);
#191=LINE('',#1038,#251);
#192=LINE('',#1041,#252);
#193=LINE('',#1042,#253);
#194=LINE('',#1044,#254);
#195=LINE('',#1051,#255);
#196=LINE('',#1054,#256);
#197=LINE('',#1057,#257);
#198=LINE('',#1059,#258);
#199=LINE('',#1060,#259);
#200=LINE('',#1063,#260);
#201=LINE('',#1067,#261);
#202=LINE('',#1071,#262);
#203=LINE('',#1076,#263);
#204=LINE('',#1079,#264);
#205=LINE('',#1080,#265);
#206=LINE('',#1085,#266);
#207=LINE('',#1086,#267);
#208=LINE('',#1088,#268);
#209=LINE('',#1092,#269);
#210=LINE('',#1094,#270);
#211=VECTOR('',#729,10.);
#212=VECTOR('',#730,10.);
#213=VECTOR('',#731,10.);
#214=VECTOR('',#732,10.);
#215=VECTOR('',#735,10.);
#216=VECTOR('',#736,10.);
#217=VECTOR('',#737,10.);
#218=VECTOR('',#740,10.);
#219=VECTOR('',#741,10.);
#220=VECTOR('',#742,10.);
#221=VECTOR('',#745,10.);
#222=VECTOR('',#748,10.);
#223=VECTOR('',#749,10.);
#224=VECTOR('',#750,10.);
#225=VECTOR('',#751,10.);
#226=VECTOR('',#754,10.);
#227=VECTOR('',#755,10.);
#228=VECTOR('',#756,10.);
#229=VECTOR('',#759,10.);
#230=VECTOR('',#760,10.);
#231=VECTOR('',#761,10.);
#232=VECTOR('',#764,10.);
#233=VECTOR('',#765,10.);
#234=VECTOR('',#772,1.5);
#235=VECTOR('',#779,3.5);
#236=VECTOR('',#786,10.);
#237=VECTOR('',#787,10.);
#238=VECTOR('',#788,10.);
#239=VECTOR('',#789,10.);
#240=VECTOR('',#790,10.);
#241=VECTOR('',#801,1.5);
#242=VECTOR('',#808,3.5);
#243=VECTOR('',#817,1.5);
#244=VECTOR('',#824,3.5);
#245=VECTOR('',#833,1.5);
#246=VECTOR('',#840,3.5);
#247=VECTOR('',#847,10.);
#248=VECTOR('',#848,10.);
#249=VECTOR('',#849,10.);
#250=VECTOR('',#852,10.);
#251=VECTOR('',#853,10.);
#252=VECTOR('',#856,10.);
#253=VECTOR('',#857,10.);
#254=VECTOR('',#860,10.);
#255=VECTOR('',#867,10.);
#256=VECTOR('',#870,10.);
#257=VECTOR('',#873,10.);
#258=VECTOR('',#874,10.);
#259=VECTOR('',#875,10.);
#260=VECTOR('',#878,10.);
#261=VECTOR('',#881,10.);
#262=VECTOR('',#884,10.);
#263=VECTOR('',#891,10.);
#264=VECTOR('',#894,10.);
#265=VECTOR('',#895,10.);
#266=VECTOR('',#900,10.);
#267=VECTOR('',#901,10.);
#268=VECTOR('',#904,10.);
#269=VECTOR('',#909,10.);
#270=VECTOR('',#912,10.);
#271=VERTEX_POINT('',#917);
#272=VERTEX_POINT('',#918);
#273=VERTEX_POINT('',#920);
#274=VERTEX_POINT('',#922);
#275=VERTEX_POINT('',#926);
#276=VERTEX_POINT('',#928);
#277=VERTEX_POINT('',#932);
#278=VERTEX_POINT('',#934);
#279=VERTEX_POINT('',#940);
#280=VERTEX_POINT('',#941);
#281=VERTEX_POINT('',#943);
#282=VERTEX_POINT('',#945);
#283=VERTEX_POINT('',#949);
#284=VERTEX_POINT('',#951);
#285=VERTEX_POINT('',#955);
#286=VERTEX_POINT('',#957);
#287=VERTEX_POINT('',#965);
#288=VERTEX_POINT('',#967);
#289=VERTEX_POINT('',#971);
#290=VERTEX_POINT('',#973);
#291=VERTEX_POINT('',#978);
#292=VERTEX_POINT('',#980);
#293=VERTEX_POINT('',#982);
#294=VERTEX_POINT('',#984);
#295=VERTEX_POINT('',#987);
#296=VERTEX_POINT('',#989);
#297=VERTEX_POINT('',#991);
#298=VERTEX_POINT('',#994);
#299=VERTEX_POINT('',#996);
#300=VERTEX_POINT('',#1000);
#301=VERTEX_POINT('',#1006);
#302=VERTEX_POINT('',#1008);
#303=VERTEX_POINT('',#1012);
#304=VERTEX_POINT('',#1018);
#305=VERTEX_POINT('',#1020);
#306=VERTEX_POINT('',#1024);
#307=VERTEX_POINT('',#1030);
#308=VERTEX_POINT('',#1031);
#309=VERTEX_POINT('',#1036);
#310=VERTEX_POINT('',#1040);
#311=VERTEX_POINT('',#1047);
#312=VERTEX_POINT('',#1048);
#313=VERTEX_POINT('',#1050);
#314=VERTEX_POINT('',#1052);
#315=VERTEX_POINT('',#1056);
#316=VERTEX_POINT('',#1058);
#317=VERTEX_POINT('',#1062);
#318=VERTEX_POINT('',#1064);
#319=VERTEX_POINT('',#1066);
#320=VERTEX_POINT('',#1068);
#321=VERTEX_POINT('',#1070);
#322=VERTEX_POINT('',#1074);
#323=VERTEX_POINT('',#1078);
#324=VERTEX_POINT('',#1082);
#325=VERTEX_POINT('',#1083);
#326=VERTEX_POINT('',#1090);
#327=EDGE_CURVE('',#271,#272,#151,.T.);
#328=EDGE_CURVE('',#271,#273,#152,.T.);
#329=EDGE_CURVE('',#274,#273,#153,.T.);
#330=EDGE_CURVE('',#272,#274,#154,.T.);
#331=EDGE_CURVE('',#272,#275,#155,.T.);
#332=EDGE_CURVE('',#276,#274,#156,.T.);
#333=EDGE_CURVE('',#275,#276,#157,.T.);
#334=EDGE_CURVE('',#277,#271,#158,.T.);
#335=EDGE_CURVE('',#277,#278,#159,.T.);
#336=EDGE_CURVE('',#273,#278,#160,.T.);
#337=EDGE_CURVE('',#278,#276,#161,.T.);
#338=EDGE_CURVE('',#279,#280,#162,.T.);
#339=EDGE_CURVE('',#279,#281,#163,.T.);
#340=EDGE_CURVE('',#282,#281,#164,.T.);
#341=EDGE_CURVE('',#280,#282,#165,.T.);
#342=EDGE_CURVE('',#280,#283,#166,.T.);
#343=EDGE_CURVE('',#284,#282,#167,.T.);
#344=EDGE_CURVE('',#283,#284,#168,.T.);
#345=EDGE_CURVE('',#283,#285,#169,.T.);
#346=EDGE_CURVE('',#286,#284,#170,.T.);
#347=EDGE_CURVE('',#285,#286,#171,.T.);
#348=EDGE_CURVE('',#285,#279,#172,.T.);
#349=EDGE_CURVE('',#281,#286,#173,.T.);
#350=EDGE_CURVE('',#287,#287,#25,.T.);
#351=EDGE_CURVE('',#287,#288,#174,.T.);
#352=EDGE_CURVE('',#288,#288,#26,.T.);
#353=EDGE_CURVE('',#289,#289,#27,.T.);
#354=EDGE_CURVE('',#289,#290,#175,.T.);
#355=EDGE_CURVE('',#290,#290,#28,.T.);
#356=EDGE_CURVE('',#275,#291,#176,.T.);
#357=EDGE_CURVE('',#291,#292,#177,.T.);
#358=EDGE_CURVE('',#292,#293,#178,.T.);
#359=EDGE_CURVE('',#293,#294,#179,.T.);
#360=EDGE_CURVE('',#294,#277,#180,.T.);
#361=EDGE_CURVE('',#295,#295,#29,.T.);
#362=EDGE_CURVE('',#296,#296,#30,.T.);
#363=EDGE_CURVE('',#297,#297,#31,.T.);
#364=EDGE_CURVE('',#298,#298,#32,.T.);
#365=EDGE_CURVE('',#298,#299,#181,.T.);
#366=EDGE_CURVE('',#299,#299,#33,.T.);
#367=EDGE_CURVE('',#300,#300,#34,.T.);
#368=EDGE_CURVE('',#300,#295,#182,.T.);
#369=EDGE_CURVE('',#301,#301,#35,.T.);
#370=EDGE_CURVE('',#301,#302,#183,.T.);
#371=EDGE_CURVE('',#302,#302,#36,.T.);
#372=EDGE_CURVE('',#303,#303,#37,.T.);
#373=EDGE_CURVE('',#303,#297,#184,.T.);
#374=EDGE_CURVE('',#304,#304,#38,.T.);
#375=EDGE_CURVE('',#304,#305,#185,.T.);
#376=EDGE_CURVE('',#305,#305,#39,.T.);
#377=EDGE_CURVE('',#306,#306,#40,.T.);
#378=EDGE_CURVE('',#306,#296,#186,.T.);
#379=EDGE_CURVE('',#307,#308,#187,.T.);
#380=EDGE_CURVE('',#307,#294,#188,.T.);
#381=EDGE_CURVE('',#308,#293,#189,.T.);
#382=EDGE_CURVE('',#308,#309,#190,.T.);
#383=EDGE_CURVE('',#309,#292,#191,.T.);
#384=EDGE_CURVE('',#309,#310,#192,.T.);
#385=EDGE_CURVE('',#310,#291,#193,.T.);
#386=EDGE_CURVE('',#310,#307,#194,.T.);
#387=EDGE_CURVE('',#311,#312,#41,.T.);
#388=EDGE_CURVE('',#312,#313,#195,.T.);
#389=EDGE_CURVE('',#313,#314,#42,.T.);
#390=EDGE_CURVE('',#314,#311,#196,.T.);
#391=EDGE_CURVE('',#315,#314,#197,.T.);
#392=EDGE_CURVE('',#316,#315,#198,.T.);
#393=EDGE_CURVE('',#311,#316,#199,.T.);
#394=EDGE_CURVE('',#313,#317,#200,.T.);
#395=EDGE_CURVE('',#318,#317,#43,.T.);
#396=EDGE_CURVE('',#318,#319,#201,.T.);
#397=EDGE_CURVE('',#320,#319,#44,.T.);
#398=EDGE_CURVE('',#320,#321,#202,.T.);
#399=EDGE_CURVE('',#315,#321,#45,.T.);
#400=EDGE_CURVE('',#322,#316,#46,.T.);
#401=EDGE_CURVE('',#321,#322,#203,.T.);
#402=EDGE_CURVE('',#323,#320,#204,.T.);
#403=EDGE_CURVE('',#322,#323,#205,.T.);
#404=EDGE_CURVE('',#324,#325,#47,.T.);
#405=EDGE_CURVE('',#325,#318,#206,.T.);
#406=EDGE_CURVE('',#317,#324,#207,.T.);
#407=EDGE_CURVE('',#324,#312,#208,.T.);
#408=EDGE_CURVE('',#326,#323,#48,.T.);
#409=EDGE_CURVE('',#319,#326,#209,.T.);
#410=EDGE_CURVE('',#326,#325,#210,.T.);
#411=ORIENTED_EDGE('',*,*,#327,.F.);
#412=ORIENTED_EDGE('',*,*,#328,.T.);
#413=ORIENTED_EDGE('',*,*,#329,.F.);
#414=ORIENTED_EDGE('',*,*,#330,.F.);
#415=ORIENTED_EDGE('',*,*,#331,.F.);
#416=ORIENTED_EDGE('',*,*,#330,.T.);
#417=ORIENTED_EDGE('',*,*,#332,.F.);
#418=ORIENTED_EDGE('',*,*,#333,.F.);
#419=ORIENTED_EDGE('',*,*,#334,.F.);
#420=ORIENTED_EDGE('',*,*,#335,.T.);
#421=ORIENTED_EDGE('',*,*,#336,.F.);
#422=ORIENTED_EDGE('',*,*,#328,.F.);
#423=ORIENTED_EDGE('',*,*,#336,.T.);
#424=ORIENTED_EDGE('',*,*,#337,.T.);
#425=ORIENTED_EDGE('',*,*,#332,.T.);
#426=ORIENTED_EDGE('',*,*,#329,.T.);
#427=ORIENTED_EDGE('',*,*,#338,.F.);
#428=ORIENTED_EDGE('',*,*,#339,.T.);
#429=ORIENTED_EDGE('',*,*,#340,.F.);
#430=ORIENTED_EDGE('',*,*,#341,.F.);
#431=ORIENTED_EDGE('',*,*,#342,.F.);
#432=ORIENTED_EDGE('',*,*,#341,.T.);
#433=ORIENTED_EDGE('',*,*,#343,.F.);
#434=ORIENTED_EDGE('',*,*,#344,.F.);
#435=ORIENTED_EDGE('',*,*,#345,.F.);
#436=ORIENTED_EDGE('',*,*,#344,.T.);
#437=ORIENTED_EDGE('',*,*,#346,.F.);
#438=ORIENTED_EDGE('',*,*,#347,.F.);
#439=ORIENTED_EDGE('',*,*,#348,.F.);
#440=ORIENTED_EDGE('',*,*,#347,.T.);
#441=ORIENTED_EDGE('',*,*,#349,.F.);
#442=ORIENTED_EDGE('',*,*,#339,.F.);
#443=ORIENTED_EDGE('',*,*,#349,.T.);
#444=ORIENTED_EDGE('',*,*,#346,.T.);
#445=ORIENTED_EDGE('',*,*,#343,.T.);
#446=ORIENTED_EDGE('',*,*,#340,.T.);
#447=ORIENTED_EDGE('',*,*,#350,.F.);
#448=ORIENTED_EDGE('',*,*,#351,.T.);
#449=ORIENTED_EDGE('',*,*,#352,.F.);
#450=ORIENTED_EDGE('',*,*,#351,.F.);
#451=ORIENTED_EDGE('',*,*,#353,.F.);
#452=ORIENTED_EDGE('',*,*,#354,.T.);
#453=ORIENTED_EDGE('',*,*,#355,.F.);
#454=ORIENTED_EDGE('',*,*,#354,.F.);
#455=ORIENTED_EDGE('',*,*,#353,.T.);
#456=ORIENTED_EDGE('',*,*,#350,.T.);
#457=ORIENTED_EDGE('',*,*,#331,.T.);
#458=ORIENTED_EDGE('',*,*,#356,.T.);
#459=ORIENTED_EDGE('',*,*,#357,.T.);
#460=ORIENTED_EDGE('',*,*,#358,.T.);
#461=ORIENTED_EDGE('',*,*,#359,.T.);
#462=ORIENTED_EDGE('',*,*,#360,.T.);
#463=ORIENTED_EDGE('',*,*,#334,.T.);
#464=ORIENTED_EDGE('',*,*,#327,.T.);
#465=ORIENTED_EDGE('',*,*,#338,.T.);
#466=ORIENTED_EDGE('',*,*,#342,.T.);
#467=ORIENTED_EDGE('',*,*,#345,.T.);
#468=ORIENTED_EDGE('',*,*,#348,.T.);
#469=ORIENTED_EDGE('',*,*,#361,.T.);
#470=ORIENTED_EDGE('',*,*,#362,.T.);
#471=ORIENTED_EDGE('',*,*,#363,.T.);
#472=ORIENTED_EDGE('',*,*,#355,.T.);
#473=ORIENTED_EDGE('',*,*,#364,.F.);
#474=ORIENTED_EDGE('',*,*,#365,.T.);
#475=ORIENTED_EDGE('',*,*,#366,.F.);
#476=ORIENTED_EDGE('',*,*,#365,.F.);
#477=ORIENTED_EDGE('',*,*,#367,.F.);
#478=ORIENTED_EDGE('',*,*,#368,.T.);
#479=ORIENTED_EDGE('',*,*,#361,.F.);
#480=ORIENTED_EDGE('',*,*,#368,.F.);
#481=ORIENTED_EDGE('',*,*,#367,.T.);
#482=ORIENTED_EDGE('',*,*,#364,.T.);
#483=ORIENTED_EDGE('',*,*,#352,.T.);
#484=ORIENTED_EDGE('',*,*,#369,.F.);
#485=ORIENTED_EDGE('',*,*,#370,.T.);
#486=ORIENTED_EDGE('',*,*,#371,.F.);
#487=ORIENTED_EDGE('',*,*,#370,.F.);
#488=ORIENTED_EDGE('',*,*,#372,.F.);
#489=ORIENTED_EDGE('',*,*,#373,.T.);
#490=ORIENTED_EDGE('',*,*,#363,.F.);
#491=ORIENTED_EDGE('',*,*,#373,.F.);
#492=ORIENTED_EDGE('',*,*,#372,.T.);
#493=ORIENTED_EDGE('',*,*,#369,.T.);
#494=ORIENTED_EDGE('',*,*,#366,.T.);
#495=ORIENTED_EDGE('',*,*,#374,.F.);
#496=ORIENTED_EDGE('',*,*,#375,.T.);
#497=ORIENTED_EDGE('',*,*,#376,.F.);
#498=ORIENTED_EDGE('',*,*,#375,.F.);
#499=ORIENTED_EDGE('',*,*,#377,.F.);
#500=ORIENTED_EDGE('',*,*,#378,.T.);
#501=ORIENTED_EDGE('',*,*,#362,.F.);
#502=ORIENTED_EDGE('',*,*,#378,.F.);
#503=ORIENTED_EDGE('',*,*,#377,.T.);
#504=ORIENTED_EDGE('',*,*,#374,.T.);
#505=ORIENTED_EDGE('',*,*,#371,.T.);
#506=ORIENTED_EDGE('',*,*,#379,.F.);
#507=ORIENTED_EDGE('',*,*,#380,.T.);
#508=ORIENTED_EDGE('',*,*,#359,.F.);
#509=ORIENTED_EDGE('',*,*,#381,.F.);
#510=ORIENTED_EDGE('',*,*,#382,.F.);
#511=ORIENTED_EDGE('',*,*,#381,.T.);
#512=ORIENTED_EDGE('',*,*,#358,.F.);
#513=ORIENTED_EDGE('',*,*,#383,.F.);
#514=ORIENTED_EDGE('',*,*,#384,.F.);
#515=ORIENTED_EDGE('',*,*,#383,.T.);
#516=ORIENTED_EDGE('',*,*,#357,.F.);
#517=ORIENTED_EDGE('',*,*,#385,.F.);
#518=ORIENTED_EDGE('',*,*,#386,.F.);
#519=ORIENTED_EDGE('',*,*,#385,.T.);
#520=ORIENTED_EDGE('',*,*,#356,.F.);
#521=ORIENTED_EDGE('',*,*,#333,.T.);
#522=ORIENTED_EDGE('',*,*,#337,.F.);
#523=ORIENTED_EDGE('',*,*,#335,.F.);
#524=ORIENTED_EDGE('',*,*,#360,.F.);
#525=ORIENTED_EDGE('',*,*,#380,.F.);
#526=ORIENTED_EDGE('',*,*,#376,.T.);
#527=ORIENTED_EDGE('',*,*,#387,.T.);
#528=ORIENTED_EDGE('',*,*,#388,.T.);
#529=ORIENTED_EDGE('',*,*,#389,.T.);
#530=ORIENTED_EDGE('',*,*,#390,.T.);
#531=ORIENTED_EDGE('',*,*,#390,.F.);
#532=ORIENTED_EDGE('',*,*,#391,.F.);
#533=ORIENTED_EDGE('',*,*,#392,.F.);
#534=ORIENTED_EDGE('',*,*,#393,.F.);
#535=ORIENTED_EDGE('',*,*,#389,.F.);
#536=ORIENTED_EDGE('',*,*,#394,.T.);
#537=ORIENTED_EDGE('',*,*,#395,.F.);
#538=ORIENTED_EDGE('',*,*,#396,.T.);
#539=ORIENTED_EDGE('',*,*,#397,.F.);
#540=ORIENTED_EDGE('',*,*,#398,.T.);
#541=ORIENTED_EDGE('',*,*,#399,.F.);
#542=ORIENTED_EDGE('',*,*,#391,.T.);
#543=ORIENTED_EDGE('',*,*,#400,.T.);
#544=ORIENTED_EDGE('',*,*,#392,.T.);
#545=ORIENTED_EDGE('',*,*,#399,.T.);
#546=ORIENTED_EDGE('',*,*,#401,.T.);
#547=ORIENTED_EDGE('',*,*,#401,.F.);
#548=ORIENTED_EDGE('',*,*,#398,.F.);
#549=ORIENTED_EDGE('',*,*,#402,.F.);
#550=ORIENTED_EDGE('',*,*,#403,.F.);
#551=ORIENTED_EDGE('',*,*,#404,.T.);
#552=ORIENTED_EDGE('',*,*,#405,.T.);
#553=ORIENTED_EDGE('',*,*,#395,.T.);
#554=ORIENTED_EDGE('',*,*,#406,.T.);
#555=ORIENTED_EDGE('',*,*,#388,.F.);
#556=ORIENTED_EDGE('',*,*,#407,.F.);
#557=ORIENTED_EDGE('',*,*,#406,.F.);
#558=ORIENTED_EDGE('',*,*,#394,.F.);
#559=ORIENTED_EDGE('',*,*,#408,.T.);
#560=ORIENTED_EDGE('',*,*,#402,.T.);
#561=ORIENTED_EDGE('',*,*,#397,.T.);
#562=ORIENTED_EDGE('',*,*,#409,.T.);
#563=ORIENTED_EDGE('',*,*,#405,.F.);
#564=ORIENTED_EDGE('',*,*,#410,.F.);
#565=ORIENTED_EDGE('',*,*,#409,.F.);
#566=ORIENTED_EDGE('',*,*,#396,.F.);
#567=ORIENTED_EDGE('',*,*,#387,.F.);
#568=ORIENTED_EDGE('',*,*,#393,.T.);
#569=ORIENTED_EDGE('',*,*,#400,.F.);
#570=ORIENTED_EDGE('',*,*,#403,.T.);
#571=ORIENTED_EDGE('',*,*,#408,.F.);
#572=ORIENTED_EDGE('',*,*,#410,.T.);
#573=ORIENTED_EDGE('',*,*,#404,.F.);
#574=ORIENTED_EDGE('',*,*,#407,.T.);
#575=ORIENTED_EDGE('',*,*,#379,.T.);
#576=ORIENTED_EDGE('',*,*,#382,.T.);
#577=ORIENTED_EDGE('',*,*,#384,.T.);
#578=ORIENTED_EDGE('',*,*,#386,.T.);
#579=PLANE('',#661);
#580=PLANE('',#662);
#581=PLANE('',#663);
#582=PLANE('',#664);
#583=PLANE('',#665);
#584=PLANE('',#666);
#585=PLANE('',#667);
#586=PLANE('',#668);
#587=PLANE('',#669);
#588=PLANE('',#676);
#589=PLANE('',#677);
#590=PLANE('',#686);
#591=PLANE('',#687);
#592=PLANE('',#693);
#593=PLANE('',#694);
#594=PLANE('',#700);
#595=PLANE('',#701);
#596=PLANE('',#702);
#597=PLANE('',#703);
#598=PLANE('',#704);
#599=PLANE('',#705);
#600=PLANE('',#706);
#601=PLANE('',#710);
#602=PLANE('',#711);
#603=PLANE('',#717);
#604=PLANE('',#720);
#605=PLANE('',#723);
#606=PLANE('',#724);
#607=ADVANCED_FACE('',(#61),#579,.T.);
#608=ADVANCED_FACE('',(#62),#580,.T.);
#609=ADVANCED_FACE('',(#63),#581,.T.);
#610=ADVANCED_FACE('',(#64),#582,.T.);
#611=ADVANCED_FACE('',(#65),#583,.T.);
#612=ADVANCED_FACE('',(#66),#584,.T.);
#613=ADVANCED_FACE('',(#67),#585,.T.);
#614=ADVANCED_FACE('',(#68),#586,.T.);
#615=ADVANCED_FACE('',(#69),#587,.T.);
#616=ADVANCED_FACE('',(#70),#49,.F.);
#617=ADVANCED_FACE('',(#71),#50,.T.);
#618=ADVANCED_FACE('',(#72,#15),#588,.T.);
#619=ADVANCED_FACE('',(#73,#16,#17,#18,#19,#20),#589,.T.);
#620=ADVANCED_FACE('',(#74),#51,.F.);
#621=ADVANCED_FACE('',(#75),#52,.T.);
#622=ADVANCED_FACE('',(#76,#21),#590,.T.);
#623=ADVANCED_FACE('',(#77),#591,.T.);
#624=ADVANCED_FACE('',(#78),#53,.F.);
#625=ADVANCED_FACE('',(#79),#54,.T.);
#626=ADVANCED_FACE('',(#80,#22),#592,.T.);
#627=ADVANCED_FACE('',(#81),#593,.T.);
#628=ADVANCED_FACE('',(#82),#55,.F.);
#629=ADVANCED_FACE('',(#83),#56,.T.);
#630=ADVANCED_FACE('',(#84,#23),#594,.T.);
#631=ADVANCED_FACE('',(#85),#595,.T.);
#632=ADVANCED_FACE('',(#86),#596,.T.);
#633=ADVANCED_FACE('',(#87),#597,.T.);
#634=ADVANCED_FACE('',(#88),#598,.T.);
#635=ADVANCED_FACE('',(#89),#599,.T.);
#636=ADVANCED_FACE('',(#90),#600,.T.);
#637=ADVANCED_FACE('',(#91),#57,.T.);
#638=ADVANCED_FACE('',(#92),#601,.T.);
#639=ADVANCED_FACE('',(#93),#602,.F.);
#640=ADVANCED_FACE('',(#94),#58,.T.);
#641=ADVANCED_FACE('',(#95),#603,.T.);
#642=ADVANCED_FACE('',(#96),#59,.T.);
#643=ADVANCED_FACE('',(#97),#604,.T.);
#644=ADVANCED_FACE('',(#98),#60,.T.);
#645=ADVANCED_FACE('',(#99),#605,.T.);
#646=ADVANCED_FACE('',(#100,#24),#606,.T.);
#647=CLOSED_SHELL('',(#607,#608,#609,#610,#611,#612,#613,#614,#615,#616,
#617,#618,#619,#620,#621,#622,#623,#624,#625,#626,#627,#628,#629,#630,#631,
#632,#633,#634,#635,#636,#637,#638,#639,#640,#641,#642,#643,#644,#645,#646));
#648=DERIVED_UNIT_ELEMENT(#650,1.);
#649=DERIVED_UNIT_ELEMENT(#1101,-3.);
#650=(
MASS_UNIT()
NAMED_UNIT(*)
SI_UNIT(.KILO.,.GRAM.)
);
#651=DERIVED_UNIT((#648,#649));
#652=MEASURE_REPRESENTATION_ITEM('density measure',
POSITIVE_RATIO_MEASURE(7850.),#651);
#653=PROPERTY_DEFINITION_REPRESENTATION(#658,#655);
#654=PROPERTY_DEFINITION_REPRESENTATION(#659,#656);
#655=REPRESENTATION('material name',(#657),#1098);
#656=REPRESENTATION('density',(#652),#1098);
#657=DESCRIPTIVE_REPRESENTATION_ITEM('Steel','Steel');
#658=PROPERTY_DEFINITION('material property','material name',#1108);
#659=PROPERTY_DEFINITION('material property','density of part',#1108);
#660=AXIS2_PLACEMENT_3D('',#915,#725,#726);
#661=AXIS2_PLACEMENT_3D('',#916,#727,#728);
#662=AXIS2_PLACEMENT_3D('',#925,#733,#734);
#663=AXIS2_PLACEMENT_3D('',#931,#738,#739);
#664=AXIS2_PLACEMENT_3D('',#937,#743,#744);
#665=AXIS2_PLACEMENT_3D('',#939,#746,#747);
#666=AXIS2_PLACEMENT_3D('',#948,#752,#753);
#667=AXIS2_PLACEMENT_3D('',#954,#757,#758);
#668=AXIS2_PLACEMENT_3D('',#960,#762,#763);
#669=AXIS2_PLACEMENT_3D('',#963,#766,#767);
#670=AXIS2_PLACEMENT_3D('',#964,#768,#769);
#671=AXIS2_PLACEMENT_3D('',#966,#770,#771);
#672=AXIS2_PLACEMENT_3D('',#969,#773,#774);
#673=AXIS2_PLACEMENT_3D('',#970,#775,#776);
#674=AXIS2_PLACEMENT_3D('',#972,#777,#778);
#675=AXIS2_PLACEMENT_3D('',#975,#780,#781);
#676=AXIS2_PLACEMENT_3D('',#976,#782,#783);
#677=AXIS2_PLACEMENT_3D('',#977,#784,#785);
#678=AXIS2_PLACEMENT_3D('',#988,#791,#792);
#679=AXIS2_PLACEMENT_3D('',#990,#793,#794);
#680=AXIS2_PLACEMENT_3D('',#992,#795,#796);
#681=AXIS2_PLACEMENT_3D('',#993,#797,#798);
#682=AXIS2_PLACEMENT_3D('',#995,#799,#800);
#683=AXIS2_PLACEMENT_3D('',#998,#802,#803);
#684=AXIS2_PLACEMENT_3D('',#999,#804,#805);
#685=AXIS2_PLACEMENT_3D('',#1001,#806,#807);
#686=AXIS2_PLACEMENT_3D('',#1003,#809,#810);
#687=AXIS2_PLACEMENT_3D('',#1004,#811,#812);
#688=AXIS2_PLACEMENT_3D('',#1005,#813,#814);
#689=AXIS2_PLACEMENT_3D('',#1007,#815,#816);
#690=AXIS2_PLACEMENT_3D('',#1010,#818,#819);
#691=AXIS2_PLACEMENT_3D('',#1011,#820,#821);
#692=AXIS2_PLACEMENT_3D('',#1013,#822,#823);
#693=AXIS2_PLACEMENT_3D('',#1015,#825,#826);
#694=AXIS2_PLACEMENT_3D('',#1016,#827,#828);
#695=AXIS2_PLACEMENT_3D('',#1017,#829,#830);
#696=AXIS2_PLACEMENT_3D('',#1019,#831,#832);
#697=AXIS2_PLACEMENT_3D('',#1022,#834,#835);
#698=AXIS2_PLACEMENT_3D('',#1023,#836,#837);
#699=AXIS2_PLACEMENT_3D('',#1025,#838,#839);
#700=AXIS2_PLACEMENT_3D('',#1027,#841,#842);
#701=AXIS2_PLACEMENT_3D('',#1028,#843,#844);
#702=AXIS2_PLACEMENT_3D('',#1029,#845,#846);
#703=AXIS2_PLACEMENT_3D('',#1035,#850,#851);
#704=AXIS2_PLACEMENT_3D('',#1039,#854,#855);
#705=AXIS2_PLACEMENT_3D('',#1043,#858,#859);
#706=AXIS2_PLACEMENT_3D('',#1045,#861,#862);
#707=AXIS2_PLACEMENT_3D('',#1046,#863,#864);
#708=AXIS2_PLACEMENT_3D('',#1049,#865,#866);
#709=AXIS2_PLACEMENT_3D('',#1053,#868,#869);
#710=AXIS2_PLACEMENT_3D('',#1055,#871,#872);
#711=AXIS2_PLACEMENT_3D('',#1061,#876,#877);
#712=AXIS2_PLACEMENT_3D('',#1065,#879,#880);
#713=AXIS2_PLACEMENT_3D('',#1069,#882,#883);
#714=AXIS2_PLACEMENT_3D('',#1072,#885,#886);
#715=AXIS2_PLACEMENT_3D('',#1073,#887,#888);
#716=AXIS2_PLACEMENT_3D('',#1075,#889,#890);
#717=AXIS2_PLACEMENT_3D('',#1077,#892,#893);
#718=AXIS2_PLACEMENT_3D('',#1081,#896,#897);
#719=AXIS2_PLACEMENT_3D('',#1084,#898,#899);
#720=AXIS2_PLACEMENT_3D('',#1087,#902,#903);
#721=AXIS2_PLACEMENT_3D('',#1089,#905,#906);
#722=AXIS2_PLACEMENT_3D('',#1091,#907,#908);
#723=AXIS2_PLACEMENT_3D('',#1093,#910,#911);
#724=AXIS2_PLACEMENT_3D('',#1095,#913,#914);
#725=DIRECTION('axis',(0.,0.,1.));
#726=DIRECTION('refdir',(1.,0.,0.));
#727=DIRECTION('center_axis',(0.,1.,0.));
#728=DIRECTION('ref_axis',(-1.,0.,0.));
#729=DIRECTION('',(1.,0.,0.));
#730=DIRECTION('',(0.,0.,1.));
#731=DIRECTION('',(-1.,0.,0.));
#732=DIRECTION('',(0.,0.,1.));
#733=DIRECTION('center_axis',(1.,0.,0.));
#734=DIRECTION('ref_axis',(0.,1.,0.));
#735=DIRECTION('',(0.,-1.,0.));
#736=DIRECTION('',(0.,1.,0.));
#737=DIRECTION('',(0.,0.,1.));
#738=DIRECTION('center_axis',(-1.,0.,0.));
#739=DIRECTION('ref_axis',(0.,-1.,0.));
#740=DIRECTION('',(0.,1.,0.));
#741=DIRECTION('',(0.,0.,1.));
#742=DIRECTION('',(0.,-1.,0.));
#743=DIRECTION('center_axis',(0.,0.,1.));
#744=DIRECTION('ref_axis',(1.,0.,0.));
#745=DIRECTION('',(1.,0.,0.));
#746=DIRECTION('center_axis',(-1.,0.,0.));
#747=DIRECTION('ref_axis',(0.,-1.,0.));
#748=DIRECTION('',(0.,1.,0.));
#749=DIRECTION('',(0.,0.,1.));
#750=DIRECTION('',(0.,-1.,0.));
#751=DIRECTION('',(0.,0.,1.));
#752=DIRECTION('center_axis',(0.,1.,0.));
#753=DIRECTION('ref_axis',(-1.,0.,0.));
#754=DIRECTION('',(1.,0.,0.));
#755=DIRECTION('',(-1.,0.,0.));
#756=DIRECTION('',(0.,0.,1.));
#757=DIRECTION('center_axis',(1.,0.,0.));
#758=DIRECTION('ref_axis',(0.,1.,0.));
#759=DIRECTION('',(0.,-1.,0.));
#760=DIRECTION('',(0.,1.,0.));
#761=DIRECTION('',(0.,0.,1.));
#762=DIRECTION('center_axis',(0.,-1.,0.));
#763=DIRECTION('ref_axis',(1.,0.,0.));
#764=DIRECTION('',(-1.,0.,0.));
#765=DIRECTION('',(1.,0.,0.));
#766=DIRECTION('center_axis',(0.,0.,1.));
#767=DIRECTION('ref_axis',(1.,0.,0.));
#768=DIRECTION('center_axis',(0.,0.,1.));
#769=DIRECTION('ref_axis',(-1.,0.,0.));
#770=DIRECTION('center_axis',(0.,0.,-1.));
#771=DIRECTION('ref_axis',(-1.,0.,0.));
#772=DIRECTION('',(0.,0.,-1.));
#773=DIRECTION('center_axis',(0.,0.,1.));
#774=DIRECTION('ref_axis',(-1.,0.,0.));
#775=DIRECTION('center_axis',(0.,0.,1.));
#776=DIRECTION('ref_axis',(-1.,0.,0.));
#777=DIRECTION('center_axis',(0.,0.,1.));
#778=DIRECTION('ref_axis',(-1.,0.,0.));
#779=DIRECTION('',(0.,0.,-1.));
#780=DIRECTION('center_axis',(0.,0.,-1.));
#781=DIRECTION('ref_axis',(-1.,0.,0.));
#782=DIRECTION('center_axis',(0.,0.,1.));
#783=DIRECTION('ref_axis',(-1.,0.,0.));
#784=DIRECTION('center_axis',(0.,0.,1.));
#785=DIRECTION('ref_axis',(1.,0.,0.));
#786=DIRECTION('',(1.,0.,0.));
#787=DIRECTION('',(0.,1.,0.));
#788=DIRECTION('',(-1.,0.,0.));
#789=DIRECTION('',(0.,-1.,0.));
#790=DIRECTION('',(1.,0.,0.));
#791=DIRECTION('center_axis',(0.,0.,-1.));
#792=DIRECTION('ref_axis',(-1.,0.,0.));
#793=DIRECTION('center_axis',(0.,0.,-1.));
#794=DIRECTION('ref_axis',(-1.,0.,0.));
#795=DIRECTION('center_axis',(0.,0.,-1.));
#796=DIRECTION('ref_axis',(-1.,0.,0.));
#797=DIRECTION('center_axis',(0.,0.,1.));
#798=DIRECTION('ref_axis',(-1.,0.,0.));
#799=DIRECTION('center_axis',(0.,0.,-1.));
#800=DIRECTION('ref_axis',(-1.,0.,0.));
#801=DIRECTION('',(0.,0.,-1.));
#802=DIRECTION('center_axis',(0.,0.,1.));
#803=DIRECTION('ref_axis',(-1.,0.,0.));
#804=DIRECTION('center_axis',(0.,0.,1.));
#805=DIRECTION('ref_axis',(-1.,0.,0.));
#806=DIRECTION('center_axis',(0.,0.,1.));
#807=DIRECTION('ref_axis',(-1.,0.,0.));
#808=DIRECTION('',(0.,0.,-1.));
#809=DIRECTION('center_axis',(0.,0.,1.));
#810=DIRECTION('ref_axis',(-1.,0.,0.));
#811=DIRECTION('center_axis',(0.,0.,1.));
#812=DIRECTION('ref_axis',(1.,0.,0.));
#813=DIRECTION('center_axis',(0.,0.,1.));
#814=DIRECTION('ref_axis',(-1.,0.,0.));
#815=DIRECTION('center_axis',(0.,0.,-1.));
#816=DIRECTION('ref_axis',(-1.,0.,0.));
#817=DIRECTION('',(0.,0.,-1.));
#818=DIRECTION('center_axis',(0.,0.,1.));
#819=DIRECTION('ref_axis',(-1.,0.,0.));
#820=DIRECTION('center_axis',(0.,0.,1.));
#821=DIRECTION('ref_axis',(-1.,0.,0.));
#822=DIRECTION('center_axis',(0.,0.,1.));
#823=DIRECTION('ref_axis',(-1.,0.,0.));
#824=DIRECTION('',(0.,0.,-1.));
#825=DIRECTION('center_axis',(0.,0.,1.));
#826=DIRECTION('ref_axis',(-1.,0.,0.));
#827=DIRECTION('center_axis',(0.,0.,1.));
#828=DIRECTION('ref_axis',(1.,0.,0.));
#829=DIRECTION('center_axis',(0.,0.,1.));
#830=DIRECTION('ref_axis',(-1.,0.,0.));
#831=DIRECTION('center_axis',(0.,0.,-1.));
#832=DIRECTION('ref_axis',(-1.,0.,0.));
#833=DIRECTION('',(0.,0.,-1.));
#834=DIRECTION('center_axis',(0.,0.,1.));
#835=DIRECTION('ref_axis',(-1.,0.,0.));
#836=DIRECTION('center_axis',(0.,0.,1.));
#837=DIRECTION('ref_axis',(-1.,0.,0.));
#838=DIRECTION('center_axis',(0.,0.,1.));
#839=DIRECTION('ref_axis',(-1.,0.,0.));
#840=DIRECTION('',(0.,0.,-1.));
#841=DIRECTION('center_axis',(0.,0.,1.));
#842=DIRECTION('ref_axis',(-1.,0.,0.));
#843=DIRECTION('center_axis',(0.,0.,1.));
#844=DIRECTION('ref_axis',(1.,0.,0.));
#845=DIRECTION('center_axis',(-1.,0.,0.));
#846=DIRECTION('ref_axis',(0.,-1.,0.));
#847=DIRECTION('',(0.,1.,0.));
#848=DIRECTION('',(0.,0.,1.));
#849=DIRECTION('',(0.,0.,1.));
#850=DIRECTION('center_axis',(0.,1.,0.));
#851=DIRECTION('ref_axis',(-1.,0.,0.));
#852=DIRECTION('',(1.,0.,0.));
#853=DIRECTION('',(0.,0.,1.));
#854=DIRECTION('center_axis',(1.,0.,0.));
#855=DIRECTION('ref_axis',(0.,1.,0.));
#856=DIRECTION('',(0.,-1.,0.));
#857=DIRECTION('',(0.,0.,1.));
#858=DIRECTION('center_axis',(0.,-1.,0.));
#859=DIRECTION('ref_axis',(1.,0.,0.));
#860=DIRECTION('',(-1.,0.,0.));
#861=DIRECTION('center_axis',(0.,0.,1.));
#862=DIRECTION('ref_axis',(1.,0.,0.));
#863=DIRECTION('center_axis',(0.,0.,1.));
#864=DIRECTION('ref_axis',(-0.707106781186547,0.707106781186547,0.));
#865=DIRECTION('center_axis',(0.,0.,-1.));
#866=DIRECTION('ref_axis',(-0.707106781186547,0.707106781186547,0.));
#867=DIRECTION('',(0.,0.,-1.));
#868=DIRECTION('center_axis',(0.,0.,1.));
#869=DIRECTION('ref_axis',(-0.707106781186547,0.707106781186547,0.));
#870=DIRECTION('',(0.,0.,1.));
#871=DIRECTION('center_axis',(-1.,0.,0.));
#872=DIRECTION('ref_axis',(0.,-1.,0.));
#873=DIRECTION('',(0.,1.,0.));
#874=DIRECTION('',(0.,0.,-1.));
#875=DIRECTION('',(0.,-1.,0.));
#876=DIRECTION('center_axis',(0.,0.,1.));
#877=DIRECTION('ref_axis',(1.,0.,0.));
#878=DIRECTION('',(1.,0.,0.));
#879=DIRECTION('center_axis',(0.,0.,1.));
#880=DIRECTION('ref_axis',(0.707106781186547,0.707106781186547,0.));
#881=DIRECTION('',(0.,-1.,0.));
#882=DIRECTION('center_axis',(0.,0.,1.));
#883=DIRECTION('ref_axis',(0.707106781186547,-0.707106781186547,0.));
#884=DIRECTION('',(-1.,0.,0.));
#885=DIRECTION('center_axis',(0.,0.,1.));
#886=DIRECTION('ref_axis',(-0.707106781186547,-0.707106781186547,0.));
#887=DIRECTION('center_axis',(0.,0.,1.));
#888=DIRECTION('ref_axis',(-0.707106781186547,-0.707106781186547,0.));
#889=DIRECTION('center_axis',(0.,0.,-1.));
#890=DIRECTION('ref_axis',(-0.707106781186547,-0.707106781186547,0.));
#891=DIRECTION('',(0.,0.,1.));
#892=DIRECTION('center_axis',(0.,-1.,0.));
#893=DIRECTION('ref_axis',(1.,0.,0.));
#894=DIRECTION('',(0.,0.,-1.));
#895=DIRECTION('',(1.,0.,0.));
#896=DIRECTION('center_axis',(0.,0.,1.));
#897=DIRECTION('ref_axis',(0.707106781186547,0.707106781186547,0.));
#898=DIRECTION('center_axis',(0.,0.,-1.));
#899=DIRECTION('ref_axis',(0.707106781186547,0.707106781186547,0.));
#900=DIRECTION('',(0.,0.,-1.));
#901=DIRECTION('',(0.,0.,1.));
#902=DIRECTION('center_axis',(0.,1.,0.));
#903=DIRECTION('ref_axis',(-1.,0.,0.));
#904=DIRECTION('',(-1.,0.,0.));
#905=DIRECTION('center_axis',(0.,0.,1.));
#906=DIRECTION('ref_axis',(0.707106781186547,-0.707106781186547,0.));
#907=DIRECTION('center_axis',(0.,0.,-1.));
#908=DIRECTION('ref_axis',(0.707106781186547,-0.707106781186547,0.));
#909=DIRECTION('',(0.,0.,1.));
#910=DIRECTION('center_axis',(1.,0.,0.));
#911=DIRECTION('ref_axis',(0.,1.,0.));
#912=DIRECTION('',(0.,1.,0.));
#913=DIRECTION('center_axis',(0.,0.,1.));
#914=DIRECTION('ref_axis',(1.,0.,0.));
#915=CARTESIAN_POINT('',(0.,0.,0.));
#916=CARTESIAN_POINT('Origin',(19.52,-12.58,5.3));
#917=CARTESIAN_POINT('',(4.51999999999999,-12.58,5.3));
#918=CARTESIAN_POINT('',(19.52,-12.58,5.3));
#919=CARTESIAN_POINT('',(8.25999999999999,-12.58,5.3));
#920=CARTESIAN_POINT('',(4.51999999999999,-12.58,9.8));
#921=CARTESIAN_POINT('',(4.51999999999999,-12.58,5.3));
#922=CARTESIAN_POINT('',(19.52,-12.58,9.8));
#923=CARTESIAN_POINT('',(19.52,-12.58,9.8));
#924=CARTESIAN_POINT('',(19.52,-12.58,5.3));
#925=CARTESIAN_POINT('Origin',(19.52,-27.58,5.3));
#926=CARTESIAN_POINT('',(19.52,-27.58,5.3));
#927=CARTESIAN_POINT('',(19.52,-13.79,5.3));
#928=CARTESIAN_POINT('',(19.52,-27.58,9.8));
#929=CARTESIAN_POINT('',(19.52,-27.58,9.8));
#930=CARTESIAN_POINT('',(19.52,-27.58,5.3));
#931=CARTESIAN_POINT('Origin',(4.51999999999999,-12.58,5.3));
#932=CARTESIAN_POINT('',(4.51999999999999,-27.58,5.3));
#933=CARTESIAN_POINT('',(4.51999999999999,-6.29,5.3));
#934=CARTESIAN_POINT('',(4.51999999999999,-27.58,9.8));
#935=CARTESIAN_POINT('',(4.51999999999999,-27.58,5.3));
#936=CARTESIAN_POINT('',(4.51999999999999,-12.58,9.8));
#937=CARTESIAN_POINT('Origin',(12.02,-20.08,9.8));
#938=CARTESIAN_POINT('',(4.51999999999999,-27.58,9.8));
#939=CARTESIAN_POINT('Origin',(-41.32,11.,5.3));
#940=CARTESIAN_POINT('',(-41.32,-11.,5.3));
#941=CARTESIAN_POINT('',(-41.32,11.,5.3));
#942=CARTESIAN_POINT('',(-41.32,5.5,5.3));
#943=CARTESIAN_POINT('',(-41.32,-11.,9.8));
#944=CARTESIAN_POINT('',(-41.32,-11.,5.3));
#945=CARTESIAN_POINT('',(-41.32,11.,9.8));
#946=CARTESIAN_POINT('',(-41.32,-11.,9.8));
#947=CARTESIAN_POINT('',(-41.32,11.,5.3));
#948=CARTESIAN_POINT('Origin',(-36.82,11.,5.3));
#949=CARTESIAN_POINT('',(-36.82,11.,5.3));
#950=CARTESIAN_POINT('',(-19.91,11.,5.3));
#951=CARTESIAN_POINT('',(-36.82,11.,9.8));
#952=CARTESIAN_POINT('',(-41.32,11.,9.8));
#953=CARTESIAN_POINT('',(-36.82,11.,5.3));
#954=CARTESIAN_POINT('Origin',(-36.82,-11.,5.3));
#955=CARTESIAN_POINT('',(-36.82,-11.,5.3));
#956=CARTESIAN_POINT('',(-36.82,-5.5,5.3));
#957=CARTESIAN_POINT('',(-36.82,-11.,9.8));
#958=CARTESIAN_POINT('',(-36.82,11.,9.8));
#959=CARTESIAN_POINT('',(-36.82,-11.,5.3));
#960=CARTESIAN_POINT('Origin',(-41.32,-11.,5.3));
#961=CARTESIAN_POINT('',(-22.16,-11.,5.3));
#962=CARTESIAN_POINT('',(-36.82,-11.,9.8));
#963=CARTESIAN_POINT('Origin',(-39.07,0.,9.8));
#964=CARTESIAN_POINT('Origin',(-39.92,-22.78,5.3));
#965=CARTESIAN_POINT('',(-38.42,-22.78,9.14));
#966=CARTESIAN_POINT('Origin',(-39.92,-22.78,9.14));
#967=CARTESIAN_POINT('',(-38.42,-22.78,5.3));
#968=CARTESIAN_POINT('',(-38.42,-22.78,5.3));
#969=CARTESIAN_POINT('Origin',(-39.92,-22.78,5.3));
#970=CARTESIAN_POINT('Origin',(-39.92,-22.78,5.3));
#971=CARTESIAN_POINT('',(-36.42,-22.78,9.14));
#972=CARTESIAN_POINT('Origin',(-39.92,-22.78,9.14));
#973=CARTESIAN_POINT('',(-36.42,-22.78,5.3));
#974=CARTESIAN_POINT('',(-36.42,-22.78,5.3));
#975=CARTESIAN_POINT('Origin',(-39.92,-22.78,5.3));
#976=CARTESIAN_POINT('Origin',(-39.92,-22.78,9.14));
#977=CARTESIAN_POINT('Origin',(-3.,0.,5.3));
#978=CARTESIAN_POINT('',(38.72,-27.58,5.3));
#979=CARTESIAN_POINT('',(38.72,-27.58,5.3));
#980=CARTESIAN_POINT('',(38.72,27.58,5.3));
#981=CARTESIAN_POINT('',(38.72,27.58,5.3));
#982=CARTESIAN_POINT('',(-44.72,27.58,5.3));
#983=CARTESIAN_POINT('',(-44.72,27.58,5.3));
#984=CARTESIAN_POINT('',(-44.72,-27.58,5.3));
#985=CARTESIAN_POINT('',(-44.72,-27.58,5.3));
#986=CARTESIAN_POINT('',(38.72,-27.58,5.3));
#987=CARTESIAN_POINT('',(-36.42,22.78,5.3));
#988=CARTESIAN_POINT('Origin',(-39.92,22.78,5.3));
#989=CARTESIAN_POINT('',(37.42,22.78,5.3));
#990=CARTESIAN_POINT('Origin',(33.92,22.78,5.3));
#991=CARTESIAN_POINT('',(37.42,-22.78,5.3));
#992=CARTESIAN_POINT('Origin',(33.92,-22.78,5.3));
#993=CARTESIAN_POINT('Origin',(-39.92,22.78,5.3));
#994=CARTESIAN_POINT('',(-38.42,22.78,9.14));
#995=CARTESIAN_POINT('Origin',(-39.92,22.78,9.14));
#996=CARTESIAN_POINT('',(-38.42,22.78,5.3));
#997=CARTESIAN_POINT('',(-38.42,22.78,5.3));
#998=CARTESIAN_POINT('Origin',(-39.92,22.78,5.3));
#999=CARTESIAN_POINT('Origin',(-39.92,22.78,5.3));
#1000=CARTESIAN_POINT('',(-36.42,22.78,9.14));
#1001=CARTESIAN_POINT('Origin',(-39.92,22.78,9.14));
#1002=CARTESIAN_POINT('',(-36.42,22.78,5.3));
#1003=CARTESIAN_POINT('Origin',(-39.92,22.78,9.14));
#1004=CARTESIAN_POINT('Origin',(-3.,0.,5.3));
#1005=CARTESIAN_POINT('Origin',(33.92,-22.78,5.3));
#1006=CARTESIAN_POINT('',(35.42,-22.78,9.14));
#1007=CARTESIAN_POINT('Origin',(33.92,-22.78,9.14));
#1008=CARTESIAN_POINT('',(35.42,-22.78,5.3));
#1009=CARTESIAN_POINT('',(35.42,-22.78,5.3));
#1010=CARTESIAN_POINT('Origin',(33.92,-22.78,5.3));
#1011=CARTESIAN_POINT('Origin',(33.92,-22.78,5.3));
#1012=CARTESIAN_POINT('',(37.42,-22.78,9.14));
#1013=CARTESIAN_POINT('Origin',(33.92,-22.78,9.14));
#1014=CARTESIAN_POINT('',(37.42,-22.78,5.3));
#1015=CARTESIAN_POINT('Origin',(33.92,-22.78,9.14));
#1016=CARTESIAN_POINT('Origin',(-3.,0.,5.3));
#1017=CARTESIAN_POINT('Origin',(33.92,22.78,5.3));
#1018=CARTESIAN_POINT('',(35.42,22.78,9.14));
#1019=CARTESIAN_POINT('Origin',(33.92,22.78,9.14));
#1020=CARTESIAN_POINT('',(35.42,22.78,5.3));
#1021=CARTESIAN_POINT('',(35.42,22.78,5.3));
#1022=CARTESIAN_POINT('Origin',(33.92,22.78,5.3));
#1023=CARTESIAN_POINT('Origin',(33.92,22.78,5.3));
#1024=CARTESIAN_POINT('',(37.42,22.78,9.14));
#1025=CARTESIAN_POINT('Origin',(33.92,22.78,9.14));
#1026=CARTESIAN_POINT('',(37.42,22.78,5.3));
#1027=CARTESIAN_POINT('Origin',(33.92,22.78,9.14));
#1028=CARTESIAN_POINT('Origin',(-3.,0.,5.3));
#1029=CARTESIAN_POINT('Origin',(-44.72,27.58,0.3));
#1030=CARTESIAN_POINT('',(-44.72,-27.58,0.3));
#1031=CARTESIAN_POINT('',(-44.72,27.58,0.3));
#1032=CARTESIAN_POINT('',(-44.72,13.79,0.3));
#1033=CARTESIAN_POINT('',(-44.72,-27.58,0.3));
#1034=CARTESIAN_POINT('',(-44.72,27.58,0.3));
#1035=CARTESIAN_POINT('Origin',(38.72,27.58,0.3));
#1036=CARTESIAN_POINT('',(38.72,27.58,0.3));
#1037=CARTESIAN_POINT('',(19.36,27.58,0.3));
#1038=CARTESIAN_POINT('',(38.72,27.58,0.3));
#1039=CARTESIAN_POINT('Origin',(38.72,-27.58,0.3));
#1040=CARTESIAN_POINT('',(38.72,-27.58,0.3));
#1041=CARTESIAN_POINT('',(38.72,-13.79,0.3));
#1042=CARTESIAN_POINT('',(38.72,-27.58,0.3));
#1043=CARTESIAN_POINT('Origin',(-44.72,-27.58,0.3));
#1044=CARTESIAN_POINT('',(-22.36,-27.58,0.3));
#1045=CARTESIAN_POINT('Origin',(-3.,0.,5.3));
#1046=CARTESIAN_POINT('Origin',(-41.22,25.5,0.));
#1047=CARTESIAN_POINT('',(-46.22,25.5,0.3));
#1048=CARTESIAN_POINT('',(-41.22,30.5,0.3));
#1049=CARTESIAN_POINT('Origin',(-41.22,25.5,0.3));
#1050=CARTESIAN_POINT('',(-41.22,30.5,0.));
#1051=CARTESIAN_POINT('',(-41.22,30.5,0.));
#1052=CARTESIAN_POINT('',(-46.22,25.5,0.));
#1053=CARTESIAN_POINT('Origin',(-41.22,25.5,0.));
#1054=CARTESIAN_POINT('',(-46.22,25.5,0.));
#1055=CARTESIAN_POINT('Origin',(-46.22,30.5,0.));
#1056=CARTESIAN_POINT('',(-46.22,-25.5,0.));
#1057=CARTESIAN_POINT('',(-46.22,-30.5,0.));
#1058=CARTESIAN_POINT('',(-46.22,-25.5,0.3));
#1059=CARTESIAN_POINT('',(-46.22,-25.5,0.));
#1060=CARTESIAN_POINT('',(-46.22,-30.5,0.3));
#1061=CARTESIAN_POINT('Origin',(0.,0.,0.));
#1062=CARTESIAN_POINT('',(41.22,30.5,0.));
#1063=CARTESIAN_POINT('',(-46.22,30.5,0.));
#1064=CARTESIAN_POINT('',(46.22,25.5,0.));
#1065=CARTESIAN_POINT('Origin',(41.22,25.5,0.));
#1066=CARTESIAN_POINT('',(46.22,-25.5,0.));
#1067=CARTESIAN_POINT('',(46.22,30.5,0.));
#1068=CARTESIAN_POINT('',(41.22,-30.5,0.));
#1069=CARTESIAN_POINT('Origin',(41.22,-25.5,0.));
#1070=CARTESIAN_POINT('',(-41.22,-30.5,0.));
#1071=CARTESIAN_POINT('',(46.22,-30.5,0.));
#1072=CARTESIAN_POINT('Origin',(-41.22,-25.5,0.));
#1073=CARTESIAN_POINT('Origin',(-41.22,-25.5,0.));
#1074=CARTESIAN_POINT('',(-41.22,-30.5,0.3));
#1075=CARTESIAN_POINT('Origin',(-41.22,-25.5,0.3));
#1076=CARTESIAN_POINT('',(-41.22,-30.5,0.));
#1077=CARTESIAN_POINT('Origin',(-46.22,-30.5,0.));
#1078=CARTESIAN_POINT('',(41.22,-30.5,0.3));
#1079=CARTESIAN_POINT('',(41.22,-30.5,0.));
#1080=CARTESIAN_POINT('',(46.22,-30.5,0.3));
#1081=CARTESIAN_POINT('Origin',(41.22,25.5,0.));
#1082=CARTESIAN_POINT('',(41.22,30.5,0.3));
#1083=CARTESIAN_POINT('',(46.22,25.5,0.3));
#1084=CARTESIAN_POINT('Origin',(41.22,25.5,0.3));
#1085=CARTESIAN_POINT('',(46.22,25.5,0.));
#1086=CARTESIAN_POINT('',(41.22,30.5,0.));
#1087=CARTESIAN_POINT('Origin',(46.22,30.5,0.));
#1088=CARTESIAN_POINT('',(-46.22,30.5,0.3));
#1089=CARTESIAN_POINT('Origin',(41.22,-25.5,0.));
#1090=CARTESIAN_POINT('',(46.22,-25.5,0.3));
#1091=CARTESIAN_POINT('Origin',(41.22,-25.5,0.3));
#1092=CARTESIAN_POINT('',(46.22,-25.5,0.));
#1093=CARTESIAN_POINT('Origin',(46.22,-30.5,0.));
#1094=CARTESIAN_POINT('',(46.22,30.5,0.3));
#1095=CARTESIAN_POINT('Origin',(0.,0.,0.3));
#1096=UNCERTAINTY_MEASURE_WITH_UNIT(LENGTH_MEASURE(0.01),#1100,
'DISTANCE_ACCURACY_VALUE',
'Maximum model space distance between geometric entities at asserted c
onnectivities');
#1097=UNCERTAINTY_MEASURE_WITH_UNIT(LENGTH_MEASURE(0.01),#1100,
'DISTANCE_ACCURACY_VALUE',
'Maximum model space distance between geometric entities at asserted c
onnectivities');
#1098=(
GEOMETRIC_REPRESENTATION_CONTEXT(3)
GLOBAL_UNCERTAINTY_ASSIGNED_CONTEXT((#1096))
GLOBAL_UNIT_ASSIGNED_CONTEXT((#1100,#1102,#1103))
REPRESENTATION_CONTEXT('','3D')
);
#1099=(
GEOMETRIC_REPRESENTATION_CONTEXT(3)
GLOBAL_UNCERTAINTY_ASSIGNED_CONTEXT((#1097))
GLOBAL_UNIT_ASSIGNED_CONTEXT((#1100,#1102,#1103))
REPRESENTATION_CONTEXT('','3D')
);
#1100=(
LENGTH_UNIT()
NAMED_UNIT(*)
SI_UNIT(.MILLI.,.METRE.)
);
#1101=(
LENGTH_UNIT()
NAMED_UNIT(*)
SI_UNIT($,.METRE.)
);
#1102=(
NAMED_UNIT(*)
PLANE_ANGLE_UNIT()
SI_UNIT($,.RADIAN.)
);
#1103=(
NAMED_UNIT(*)
SI_UNIT($,.STERADIAN.)
SOLID_ANGLE_UNIT()
);
#1104=SHAPE_DEFINITION_REPRESENTATION(#1105,#1106);
#1105=PRODUCT_DEFINITION_SHAPE('',$,#1108);
#1106=SHAPE_REPRESENTATION('',(#660),#1098);
#1107=PRODUCT_DEFINITION_CONTEXT('part definition',#1112,'design');
#1108=PRODUCT_DEFINITION('3.5inch waveshare display',
'3.5inch waveshare display v4',#1109,#1107);
#1109=PRODUCT_DEFINITION_FORMATION('',$,#1114);
#1110=PRODUCT_RELATED_PRODUCT_CATEGORY('3.5inch waveshare display v4',
'3.5inch waveshare display v4',(#1114));
#1111=APPLICATION_PROTOCOL_DEFINITION('international standard',
'automotive_design',2009,#1112);
#1112=APPLICATION_CONTEXT(
'Core Data for Automotive Mechanical Design Process');
#1113=PRODUCT_CONTEXT('part definition',#1112,'mechanical');
#1114=PRODUCT('3.5inch waveshare display',
'3.5inch waveshare display v4',$,(#1113));
#1115=PRESENTATION_STYLE_ASSIGNMENT((#1116));
#1116=SURFACE_STYLE_USAGE(.BOTH.,#1117);
#1117=SURFACE_SIDE_STYLE('',(#1118));
#1118=SURFACE_STYLE_FILL_AREA(#1119);
#1119=FILL_AREA_STYLE('Steel - Satin',(#1120));
#1120=FILL_AREA_STYLE_COLOUR('Steel - Satin',#1121);
#1121=COLOUR_RGB('Steel - Satin',0.627450980392157,0.627450980392157,0.627450980392157);
ENDSEC;
END-ISO-10303-21;
